<svg width="106" height="66" viewBox="0 0 106 66" fill="none" xmlns="http://www.w3.org/2000/svg">
<path d="M58.3714 18.0909V37H54.946V21.424H54.8352L50.4126 24.2493V21.1101L55.1122 18.0909H58.3714ZM70.1619 37.3601C68.6416 37.3601 67.3366 36.9754 66.2472 36.206C65.1638 35.4304 64.3298 34.3132 63.745 32.8544C63.1664 31.3894 62.8771 29.6259 62.8771 27.5639C62.8833 25.5019 63.1757 23.7476 63.7543 22.3011C64.339 20.8485 65.1731 19.7405 66.2564 18.9773C67.3459 18.214 68.6477 17.8324 70.1619 17.8324C71.6761 17.8324 72.978 18.214 74.0675 18.9773C75.157 19.7405 75.991 20.8485 76.5696 22.3011C77.1544 23.7538 77.4467 25.508 77.4467 27.5639C77.4467 29.6321 77.1544 31.3987 76.5696 32.8636C75.991 34.3224 75.157 35.4366 74.0675 36.206C72.9841 36.9754 71.6823 37.3601 70.1619 37.3601ZM70.1619 34.4702C71.3438 34.4702 72.2763 33.8885 72.9595 32.7251C73.6489 31.5556 73.9936 29.8352 73.9936 27.5639C73.9936 26.062 73.8366 24.8002 73.5227 23.7784C73.2088 22.7566 72.7656 21.9872 72.1932 21.4702C71.6207 20.947 70.9437 20.6854 70.1619 20.6854C68.9863 20.6854 68.0568 21.2701 67.3736 22.4396C66.6903 23.603 66.3456 25.3111 66.3395 27.5639C66.3333 29.072 66.4841 30.34 66.7919 31.3679C67.1058 32.3958 67.549 33.1714 68.1214 33.6946C68.6939 34.2116 69.3741 34.4702 70.1619 34.4702Z" fill="white"/>
<path d="M17.8651 37V18.0909H24.956C26.4086 18.0909 27.6274 18.3617 28.6122 18.9034C29.6032 19.4451 30.3511 20.1899 30.8558 21.1378C31.3667 22.0795 31.6222 23.1506 31.6222 24.3509C31.6222 25.5634 31.3667 26.6406 30.8558 27.5824C30.3449 28.5241 29.5909 29.2659 28.5938 29.8075C27.5966 30.343 26.3686 30.6108 24.9098 30.6108H20.2102V27.7947H24.4482C25.2976 27.7947 25.9931 27.647 26.5348 27.3516C27.0765 27.0561 27.4766 26.6499 27.7351 26.1328C27.9998 25.6158 28.1321 25.0218 28.1321 24.3509C28.1321 23.6799 27.9998 23.089 27.7351 22.5781C27.4766 22.0672 27.0734 21.6702 26.5256 21.3871C25.9839 21.0978 25.2853 20.9531 24.4297 20.9531H21.2905V37H17.8651Z" fill="white"/>
<mask id="path-3-inside-1_1006_6689" fill="white">
<path fill-rule="evenodd" clip-rule="evenodd" d="M27.5 0C12.3122 0 0 12.3122 0 27.5C0 42.6878 12.3122 55 27.5 55H40.7452C44.882 55 48.5918 57.5472 50.0778 61.4079L51.1335 64.1507C51.7912 65.8594 54.2088 65.8594 54.8665 64.1507L55.9222 61.4079C57.4082 57.5472 61.118 55 65.2548 55H78.5C93.6878 55 106 42.6878 106 27.5C106 12.3122 93.6878 0 78.5 0H27.5Z"/>
</mask>
<path fill-rule="evenodd" clip-rule="evenodd" d="M27.5 0C12.3122 0 0 12.3122 0 27.5C0 42.6878 12.3122 55 27.5 55H40.7452C44.882 55 48.5918 57.5472 50.0778 61.4079L51.1335 64.1507C51.7912 65.8594 54.2088 65.8594 54.8665 64.1507L55.9222 61.4079C57.4082 57.5472 61.118 55 65.2548 55H78.5C93.6878 55 106 42.6878 106 27.5C106 12.3122 93.6878 0 78.5 0H27.5Z" fill="#4E495D"/>
<path d="M51.1335 64.1507L49.267 64.8691L51.1335 64.1507ZM54.8665 64.1507L56.733 64.8691L54.8665 64.1507ZM2 27.5C2 13.4167 13.4167 2 27.5 2V-2C11.2076 -2 -2 11.2076 -2 27.5H2ZM27.5 53C13.4167 53 2 41.5833 2 27.5H-2C-2 43.7924 11.2076 57 27.5 57V53ZM40.7452 53H27.5V57H40.7452V53ZM48.2113 62.1263L49.267 64.8691L53 63.4322L51.9443 60.6895L48.2113 62.1263ZM49.267 64.8691C50.5824 68.2866 55.4176 68.2866 56.733 64.8691L53 63.4322C52.9959 63.443 52.9928 63.4486 52.9917 63.4504C52.9907 63.4522 52.9909 63.4515 52.9929 63.4491C52.9947 63.4468 52.9974 63.444 53.0007 63.441C53.004 63.438 53.0073 63.4356 53.0102 63.4337C53.0159 63.43 53.0184 63.4296 53.016 63.4303C53.0133 63.4311 53.0076 63.4322 53 63.4322C52.9924 63.4322 52.9867 63.4311 52.984 63.4303C52.9816 63.4296 52.9841 63.43 52.9898 63.4337C52.9927 63.4356 52.996 63.438 52.9993 63.441C53.0026 63.444 53.0053 63.4468 53.0071 63.4491C53.0091 63.4515 53.0093 63.4522 53.0083 63.4504C53.0072 63.4486 53.0041 63.443 53 63.4322L49.267 64.8691ZM56.733 64.8691L57.7887 62.1263L54.0557 60.6895L53 63.4322L56.733 64.8691ZM78.5 53H65.2548V57H78.5V53ZM104 27.5C104 41.5833 92.5833 53 78.5 53V57C94.7924 57 108 43.7924 108 27.5H104ZM78.5 2C92.5833 2 104 13.4167 104 27.5H108C108 11.2076 94.7924 -2 78.5 -2V2ZM27.5 2H78.5V-2H27.5V2ZM57.7887 62.1263C58.9775 59.0378 61.9453 57 65.2548 57V53C60.2906 53 55.8389 56.0566 54.0557 60.6895L57.7887 62.1263ZM40.7452 57C44.0547 57 47.0225 59.0378 48.2113 62.1263L51.9443 60.6895C50.1611 56.0566 45.7094 53 40.7452 53V57Z" fill="white" mask="url(#path-3-inside-1_1006_6689)"/>
<path d="M18.152 38V16.1818H26.3338C28.0099 16.1818 29.4162 16.4943 30.5526 17.1193C31.696 17.7443 32.5589 18.6037 33.1413 19.6974C33.7308 20.7841 34.0256 22.0199 34.0256 23.4048C34.0256 24.804 33.7308 26.0469 33.1413 27.1335C32.5518 28.2202 31.6818 29.076 30.5312 29.701C29.3807 30.3189 27.9638 30.6278 26.2805 30.6278H20.858V27.3786H25.7479C26.728 27.3786 27.5305 27.2081 28.1555 26.8672C28.7805 26.5263 29.2422 26.0575 29.5405 25.4609C29.8459 24.8643 29.9986 24.179 29.9986 23.4048C29.9986 22.6307 29.8459 21.9489 29.5405 21.3594C29.2422 20.7699 28.777 20.3118 28.1449 19.9851C27.5199 19.6513 26.7138 19.4844 25.7266 19.4844H22.1044V38H18.152Z" fill="white"/>
<path d="M68.7429 18.5455V36H65.0526V22.0483H64.9503L60.9531 24.554V21.2812L65.2741 18.5455H68.7429ZM79.7351 36.3835C78.2692 36.3778 77.0078 36.017 75.951 35.3011C74.8999 34.5852 74.0902 33.5483 73.522 32.1903C72.9595 30.8324 72.6811 29.1989 72.6868 27.2898C72.6868 25.3864 72.968 23.7642 73.5305 22.4233C74.0987 21.0824 74.9084 20.0625 75.9595 19.3636C77.0163 18.6591 78.2749 18.3068 79.7351 18.3068C81.1953 18.3068 82.451 18.6591 83.5021 19.3636C84.5589 20.0682 85.3714 21.0909 85.9396 22.4318C86.5078 23.767 86.7891 25.3864 86.7834 27.2898C86.7834 29.2045 86.4993 30.8409 85.9311 32.1989C85.3686 33.5568 84.5618 34.5937 83.5107 35.3097C82.4595 36.0256 81.201 36.3835 79.7351 36.3835ZM79.7351 33.3239C80.7351 33.3239 81.5334 32.821 82.13 31.8153C82.7266 30.8097 83.022 29.3011 83.0163 27.2898C83.0163 25.9659 82.88 24.8636 82.6072 23.983C82.3402 23.1023 81.9595 22.4403 81.4652 21.9972C80.9766 21.554 80.3999 21.3324 79.7351 21.3324C78.7408 21.3324 77.9453 21.8295 77.3487 22.8239C76.7521 23.8182 76.451 25.3068 76.4453 27.2898C76.4453 28.6307 76.5788 29.75 76.8459 30.6477C77.1186 31.5398 77.5021 32.2102 77.9964 32.6591C78.4908 33.1023 79.0703 33.3239 79.7351 33.3239Z" fill="white"/>
</svg>
