<svg width="24" height="24" viewBox="0 0 24 24" fill="none" xmlns="http://www.w3.org/2000/svg">
<path d="M7.14286 4.125C7.14286 3.50273 6.66406 3 6.07143 3C5.47879 3 5 3.50273 5 4.125V5.25V15.9375V19.875C5 20.4973 5.47879 21 6.07143 21C6.66406 21 7.14286 20.4973 7.14286 19.875V15.375L9.29576 14.809C10.6719 14.4469 12.1283 14.6156 13.3973 15.2801C14.8772 16.057 16.5949 16.152 18.1417 15.5402L19.3036 15.0832C19.7221 14.918 20 14.4996 20 14.0285V5.32383C20 4.51523 19.1897 3.98789 18.5 4.35L18.1786 4.51875C16.6283 5.33438 14.8036 5.33438 13.2533 4.51875C12.0781 3.9 10.7288 3.74531 9.45312 4.0793L7.14286 4.6875V4.125Z" fill="#000000"/>
</svg>
