<svg width="24" height="24" viewBox="0 0 24 24" fill="none" xmlns="http://www.w3.org/2000/svg">
<path d="M21.9852 10.7229L17.7571 14.4129L19.0236 19.9067C19.0906 20.1939 19.0715 20.4945 18.9686 20.7709C18.8658 21.0472 18.6837 21.2872 18.4452 21.4606C18.2067 21.6341 17.9223 21.7334 17.6277 21.7462C17.3331 21.7589 17.0412 21.6845 16.7886 21.5323L11.9971 18.6261L7.2158 21.5323C6.96321 21.6845 6.67135 21.7589 6.37671 21.7462C6.08208 21.7334 5.79773 21.6341 5.55923 21.4606C5.32074 21.2872 5.13866 21.0472 5.03578 20.7709C4.9329 20.4945 4.91378 20.1939 4.9808 19.9067L6.24549 14.4186L2.01643 10.7229C1.79275 10.53 1.631 10.2754 1.55148 9.99089C1.47195 9.70642 1.47819 9.4048 1.5694 9.12385C1.66061 8.84291 1.83274 8.59515 2.0642 8.41164C2.29566 8.22813 2.57615 8.11705 2.87049 8.09231L8.44486 7.6095L10.6208 2.4195C10.7344 2.14717 10.9261 1.91455 11.1717 1.75093C11.4172 1.58731 11.7057 1.5 12.0008 1.5C12.2959 1.5 12.5844 1.58731 12.8299 1.75093C13.0755 1.91455 13.2672 2.14717 13.3808 2.4195L15.5633 7.6095L21.1358 8.09231C21.4301 8.11705 21.7106 8.22813 21.9421 8.41164C22.1736 8.59515 22.3457 8.84291 22.4369 9.12385C22.5281 9.4048 22.5343 9.70642 22.4548 9.99089C22.3753 10.2754 22.2135 10.53 21.9899 10.7229H21.9852Z" fill="#F6D620"/>
</svg>
