<svg width="24" height="24" viewBox="0 0 24 24" fill="none" xmlns="http://www.w3.org/2000/svg">
<path fill-rule="evenodd" clip-rule="evenodd" d="M6.66667 4C6.48986 4 6.32029 4.07024 6.19526 4.19526C6.07024 4.32029 6 4.48986 6 4.66667V19.3333C6 19.4523 6.03185 19.5692 6.09225 19.6717C6.15266 19.7742 6.2394 19.8587 6.34349 19.9164C6.44757 19.9741 6.5652 20.0029 6.68417 19.9998C6.80313 19.9966 6.91909 19.9617 7.02 19.8987L12 16.7867L16.98 19.8987C17.0809 19.9617 17.1969 19.9966 17.3158 19.9998C17.4348 20.0029 17.5524 19.9741 17.6565 19.9164C17.7606 19.8587 17.8473 19.7742 17.9077 19.6717C17.9681 19.5692 18 19.4523 18 19.3333V4.66667C18 4.48986 17.9298 4.32029 17.8047 4.19526C17.6797 4.07024 17.5101 4 17.3333 4H6.66667Z" fill="black"/>
</svg>
