<svg width="24" height="24" viewBox="0 0 24 24" fill="none" xmlns="http://www.w3.org/2000/svg">
<path d="M13.793 4.10071C13.3887 4.28285 13.125 4.69355 13.125 5.14353V7.42914H9.1875C5.77031 7.42914 3 10.2433 3 13.7146C3 17.7608 5.86523 19.5679 6.52266 19.9321C6.61055 19.9821 6.70898 20 6.80742 20C7.19063 20 7.5 19.6822 7.5 19.2965C7.5 19.0286 7.34883 18.7822 7.15547 18.6001C6.825 18.2822 6.375 17.6572 6.375 16.5716C6.375 14.6788 7.88672 13.1432 9.75 13.1432H13.125V15.4288C13.125 15.8788 13.3852 16.2895 13.793 16.4716C14.2008 16.6537 14.6719 16.5787 15.0023 16.2787L20.6273 11.1361C20.8629 10.9183 21 10.6111 21 10.2862C21 9.96117 20.8664 9.65404 20.6273 9.43619L15.0023 4.29356C14.6719 3.99001 14.1973 3.91501 13.793 4.10071Z" fill="black"/>
</svg>
